<?xml version="1.0" standalone="no"?>
<!DOCTYPE svg PUBLIC "-//W3C//DTD SVG 20010904//EN"
 "http://www.w3.org/TR/2001/REC-SVG-20010904/DTD/svg10.dtd">
<svg version="1.0" xmlns="http://www.w3.org/2000/svg"
 width="669.000000pt" height="669.000000pt" viewBox="0 0 669.000000 669.000000"
 preserveAspectRatio="xMidYMid meet">
<metadata>
Created by potrace 1.11, written by Peter Selinger 2001-2013
</metadata>
<g transform="translate(0.000000,669.000000) scale(0.100000,-0.100000)"
fill="#000000" stroke="none">
<path d="M1442 6428 c-51 -15 -74 -30 -126 -81 -53 -53 -66 -72 -84 -132 l-23
-70 3 -2730 c3 -2688 3 -2731 23 -2778 10 -26 23 -47 27 -47 4 0 8 -5 8 -11 0
-7 14 -25 30 -41 17 -15 30 -36 30 -46 0 -14 2 -15 10 -2 9 14 14 7 11 -13 -1
-5 3 -6 8 -2 9 5 46 -10 61 -25 6 -6 30 -12 48 -13 6 0 12 -3 12 -7 0 -3 27
-5 60 -4 55 2 59 0 48 -15 -7 -9 -1 -6 12 5 27 23 70 37 70 23 0 -5 9 0 20 11
11 11 27 20 35 20 8 0 15 5 15 11 0 6 7 8 16 5 8 -3 13 -2 10 2 -3 4 4 14 16
21 11 7 17 8 13 2 -3 -6 -1 -11 4 -11 6 0 11 7 11 15 0 14 12 19 33 16 4 0 7
4 7 9 0 6 10 15 23 20 12 5 40 21 62 35 22 14 48 28 58 31 9 4 17 11 17 16 0
6 14 8 33 5 17 -3 26 -3 20 0 -7 2 -13 10 -13 15 0 6 3 9 6 5 4 -3 13 1 21 9
9 8 22 13 30 10 8 -3 11 -2 8 3 -3 5 4 12 15 16 11 3 20 11 20 17 0 5 8 7 17
4 10 -4 14 -4 10 0 -4 4 2 12 12 18 10 6 29 17 41 24 19 12 21 12 15 0 -4 -7
2 -3 12 9 10 12 29 27 43 32 14 6 34 16 45 23 40 25 60 35 69 36 5 0 12 4 15
10 5 8 57 39 130 78 14 7 28 11 33 8 5 -3 7 0 6 7 -2 7 2 13 9 14 7 0 21 7 31
16 20 17 53 33 65 31 4 -1 7 3 7 8 0 6 18 18 40 27 22 10 40 21 40 25 0 5 6 8
14 8 7 0 19 7 26 15 7 8 16 13 20 10 5 -3 10 -1 12 4 1 5 10 11 18 13 8 2 23
11 34 21 11 9 28 17 38 17 11 0 16 4 13 10 -4 6 1 7 11 3 11 -4 15 -3 10 5 -3
6 3 13 14 17 11 4 39 19 61 33 23 15 44 25 46 24 3 -2 9 0 12 5 9 13 146 93
159 93 7 0 12 5 12 11 0 5 5 7 10 4 6 -3 10 -1 10 4 0 6 9 11 19 11 10 0 22 7
25 16 3 8 10 12 16 9 6 -3 13 1 16 9 3 9 10 13 15 10 5 -3 9 0 9 6 0 6 5 8 10
5 6 -3 10 -2 10 2 0 5 9 14 21 21 17 11 20 11 14 0 -3 -7 0 -5 8 5 11 14 16
15 20 5 3 -8 6 -6 6 6 1 12 6 16 16 12 9 -3 15 0 15 9 0 8 7 15 15 15 8 0 15
5 15 10 0 6 4 10 10 10 5 0 32 13 60 30 27 16 50 26 50 22 0 -4 5 0 10 8 8 12
13 13 30 3 11 -7 23 -13 27 -13 5 0 0 5 -9 11 -22 13 -23 25 -2 33 12 5 15 2
10 -10 -5 -14 -4 -15 9 -4 8 7 13 15 11 19 -3 4 4 13 16 20 11 7 18 8 14 3 -3
-5 1 -9 8 -9 8 0 12 7 8 15 -3 10 -1 13 6 8 7 -4 12 -3 12 1 0 14 54 41 70 35
8 -2 12 -1 8 3 -13 14 55 55 70 43 9 -8 11 -7 6 7 -5 13 -4 16 4 11 7 -4 12
-2 12 4 0 6 5 8 10 5 6 -3 10 -2 10 4 0 9 11 16 93 58 17 9 35 21 40 27 5 8
10 7 16 -2 6 -10 10 -8 14 8 3 12 10 19 16 15 6 -3 11 -2 11 4 0 6 17 19 38
29 20 10 49 26 65 36 15 10 27 16 27 12 0 -3 9 3 20 14 22 22 45 27 34 8 -4
-8 -3 -10 2 -5 5 5 9 13 9 18 0 6 27 24 60 42 33 18 62 34 65 37 3 3 18 14 34
24 19 12 26 13 21 5 -3 -8 1 -5 9 5 9 11 16 16 16 10 0 -5 7 0 15 10 8 11 15
16 15 12 0 -4 20 7 44 24 42 28 46 29 56 13 10 -16 10 -15 5 4 -3 12 -1 25 6
29 8 4 9 3 5 -4 -4 -7 -2 -12 3 -12 6 0 11 6 11 14 0 14 34 30 58 27 7 -1 11
2 10 6 -2 4 1 9 6 10 5 1 12 5 15 10 13 19 62 43 73 37 6 -4 8 -3 5 3 -6 9 12
21 113 74 25 13 47 26 50 29 17 17 72 40 82 34 6 -4 8 -3 5 3 -4 6 -1 16 7 22
11 9 15 9 19 -1 4 -9 6 -8 6 3 1 13 65 54 74 46 1 -1 13 8 27 20 13 13 28 23
32 23 5 0 27 12 49 26 23 14 47 23 54 20 9 -3 12 0 8 10 -4 10 0 12 13 7 11
-4 15 -3 11 4 -7 10 19 28 36 25 4 -1 7 3 7 9 0 6 9 9 20 6 10 -3 18 -1 17 4
-1 5 14 19 32 31 23 15 32 17 27 8 -4 -8 2 -4 13 10 11 14 21 21 21 15 0 -6 3
-5 8 1 4 6 29 23 55 37 26 15 58 34 71 42 19 13 25 13 29 3 3 -8 6 -6 6 5 1
19 26 19 26 0 0 -6 4 -15 9 -20 6 -5 6 -2 1 6 -6 11 -4 13 11 8 14 -5 12 -2
-6 13 l-25 20 23 6 c12 4 22 10 22 15 0 5 5 9 11 9 6 0 24 9 40 21 16 11 29
16 29 10 0 -6 4 -11 10 -11 5 0 7 7 4 15 -5 11 -2 13 12 8 10 -4 15 -2 11 3
-3 6 15 22 39 37 25 15 42 22 39 15 -4 -7 -1 -6 7 2 18 22 88 63 88 53 0 -4 5
0 11 10 13 23 28 13 23 -16 -4 -20 -4 -20 4 -2 5 11 7 25 5 32 -3 8 3 11 16 8
14 -2 18 1 15 10 -4 10 0 13 15 10 12 -2 20 1 18 8 -1 7 4 11 11 10 6 -2 12 0
12 5 0 4 18 18 40 32 22 14 40 27 40 30 0 3 12 19 26 35 14 17 23 25 20 18 -4
-6 -2 -14 3 -17 5 -4 8 6 6 20 -2 23 0 25 24 20 26 -6 26 -6 3 7 -12 7 -20 16
-16 20 4 4 14 1 22 -6 13 -10 14 -9 2 9 -15 24 -6 59 11 48 8 -4 9 -3 5 5 -4
6 -8 49 -8 94 0 45 -5 88 -11 95 -8 10 -7 16 4 23 12 7 11 9 -3 9 -9 0 -21 12
-26 28 -13 35 -75 99 -129 135 -24 15 -45 27 -48 27 -3 0 -24 12 -48 27 -38
24 -100 61 -197 115 -71 40 -226 132 -262 154 -21 13 -39 24 -42 24 -3 0 -367
209 -416 240 -84 51 -171 100 -180 100 -5 0 -10 4 -10 9 0 5 -8 11 -17 14 -10
4 -36 17 -58 30 -122 73 -197 117 -201 117 -3 0 -30 16 -60 35 -30 19 -57 35
-60 35 -3 0 -25 14 -49 30 -24 17 -46 30 -50 30 -3 0 -45 23 -93 51 -48 29
-107 63 -132 77 -25 14 -61 35 -80 47 -19 12 -42 25 -50 28 -8 4 -28 16 -45
27 -16 11 -52 31 -80 46 -27 15 -51 30 -53 35 -2 5 -8 9 -13 9 -6 0 -63 31
-127 69 -64 38 -139 81 -167 96 -27 15 -62 36 -77 46 -14 11 -29 19 -32 19 -4
0 -41 21 -83 47 -42 25 -86 51 -97 57 -20 11 -356 206 -434 253 -20 12 -44 25
-52 29 -44 22 -135 79 -138 86 -2 4 -10 8 -17 8 -17 0 -75 33 -75 43 0 4 -4 7
-9 7 -8 0 -130 69 -441 250 -69 40 -141 81 -160 92 -105 60 -177 103 -191 115
-9 7 -19 10 -22 6 -4 -3 -7 -1 -7 5 0 7 -4 12 -10 12 -5 0 -31 13 -57 29 -82
50 -156 91 -203 112 -63 29 -159 32 -238 7z"/>
<path d="M6510 3460 c-8 -5 -12 -11 -10 -14 3 -2 14 2 24 10 22 15 10 19 -14
4z"/>
<path d="M6519 3418 c-6 -21 -5 -38 1 -38 5 0 8 9 7 20 -1 17 -5 26 -8 18z"/>
<path d="M6533 3366 c-4 -5 -1 -6 7 -1 10 6 12 3 7 -11 -7 -18 -6 -18 8 1 9
11 18 18 20 15 2 -3 6 -3 9 1 3 3 -6 5 -20 5 -14 0 -28 -4 -31 -10z"/>
<path d="M6500 3330 c-8 -5 -10 -10 -5 -10 6 0 17 5 25 10 8 5 11 10 5 10 -5
0 -17 -5 -25 -10z"/>
<path d="M6523 3312 c-7 -4 -9 -13 -4 -21 6 -9 10 -7 14 8 3 12 4 21 4 21 -1
0 -7 -4 -14 -8z"/>
<path d="M6540 3254 c8 -10 15 -20 16 -22 1 -2 4 1 7 5 3 5 -4 15 -16 23 -21
12 -21 12 -7 -6z"/>
<path d="M6415 3210 c-3 -5 -1 -10 4 -10 6 0 11 5 11 10 0 6 -2 10 -4 10 -3 0
-8 -4 -11 -10z"/>
<path d="M6436 3192 c-2 -4 -1 -14 3 -20 6 -10 11 -9 21 3 11 13 10 14 -5 9
-13 -5 -16 -4 -11 4 4 7 5 12 2 12 -3 0 -7 -4 -10 -8z"/>
<path d="M6487 3169 c7 -7 15 -10 18 -7 3 3 -2 9 -12 12 -14 6 -15 5 -6 -5z"/>
<path d="M6388 3143 c7 -3 16 -2 19 1 4 3 -2 6 -13 5 -11 0 -14 -3 -6 -6z"/>
<path d="M6450 3139 c0 -5 -6 -7 -12 -3 -7 4 -10 4 -6 -1 4 -4 4 -13 -2 -19
-6 -8 -3 -12 8 -12 11 0 18 9 18 23 1 13 0 23 -2 23 -2 0 -4 -5 -4 -11z"/>
<path d="M6355 3130 c-3 -5 -1 -10 4 -10 6 0 11 5 11 10 0 6 -2 10 -4 10 -3 0
-8 -4 -11 -10z"/>
<path d="M6374 3108 c-5 -7 -3 -8 6 -3 9 6 12 4 8 -6 -4 -10 1 -15 13 -15 17
0 17 2 2 18 -19 21 -20 21 -29 6z"/>
<path d="M6325 3060 c-16 -7 -17 -9 -3 -9 9 -1 20 4 23 9 7 11 7 11 -20 0z"/>
<path d="M6356 3043 c-6 -14 -5 -15 5 -6 7 7 10 15 7 18 -3 3 -9 -2 -12 -12z"/>
<path d="M6410 3056 c0 -2 7 -7 16 -10 8 -3 12 -2 9 4 -6 10 -25 14 -25 6z"/>
<path d="M6238 3023 c7 -3 16 -2 19 1 4 3 -2 6 -13 5 -11 0 -14 -3 -6 -6z"/>
<path d="M6274 3010 c0 -13 4 -16 10 -10 7 7 7 13 0 20 -6 6 -10 3 -10 -10z"/>
<path d="M6150 3016 c0 -3 9 -10 20 -16 11 -6 20 -8 20 -6 0 3 -9 10 -20 16
-11 6 -20 8 -20 6z"/>
<path d="M6056 2967 c3 -10 9 -15 12 -12 3 3 0 11 -7 18 -10 9 -11 8 -5 -6z"/>
<path d="M6086 2967 c3 -10 9 -15 12 -12 3 3 0 11 -7 18 -10 9 -11 8 -5 -6z"/>
<path d="M6120 2970 c-12 -7 -10 -9 8 -7 12 0 22 5 22 9 0 11 -12 10 -30 -2z"/>
<path d="M6215 2969 c-3 -4 2 -6 10 -5 21 3 28 13 10 13 -9 0 -18 -4 -20 -8z"/>
<path d="M6036 2957 c3 -10 9 -15 12 -12 3 3 0 11 -7 18 -10 9 -11 8 -5 -6z"/>
<path d="M6150 2942 c0 -15 28 -23 36 -9 4 7 4 9 -1 5 -4 -4 -14 -3 -22 3 -8
7 -13 8 -13 1z"/>
<path d="M6196 2923 c-6 -14 -5 -15 5 -6 7 7 10 15 7 18 -3 3 -9 -2 -12 -12z"/>
<path d="M6001 2923 c-1 -17 16 -25 25 -12 4 7 3 9 -4 5 -5 -3 -13 0 -15 6 -4
9 -6 10 -6 1z"/>
<path d="M5950 2895 c0 -8 2 -15 4 -15 2 0 6 7 10 15 3 8 1 15 -4 15 -6 0 -10
-7 -10 -15z"/>
<path d="M6091 2894 c0 -11 3 -14 6 -6 3 7 2 16 -1 19 -3 4 -6 -2 -5 -13z"/>
<path d="M6025 2890 c-3 -6 1 -7 9 -4 18 7 21 14 7 14 -6 0 -13 -4 -16 -10z"/>
<path d="M5916 2855 c3 -8 10 -13 14 -10 5 3 11 -1 13 -7 4 -10 6 -10 6 -1 1
7 -8 17 -19 23 -16 9 -18 8 -14 -5z"/>
<path d="M6033 2855 c0 -8 4 -12 9 -9 5 3 6 10 3 15 -9 13 -12 11 -12 -6z"/>
<path d="M5973 2847 c0 -7 9 -13 19 -13 10 0 18 1 18 3 0 1 -8 7 -18 12 -13 7
-19 6 -19 -2z"/>
<path d="M5915 2819 c-4 -6 -5 -12 -2 -15 2 -3 7 2 10 11 7 17 1 20 -8 4z"/>
<path d="M5824 2812 c4 -3 14 -7 22 -8 9 -1 13 0 10 4 -4 3 -14 7 -22 8 -9 1
-13 0 -10 -4z"/>
<path d="M5795 2791 c-9 -15 15 -25 28 -12 9 9 7 10 -7 5 -13 -5 -17 -4 -12 4
4 7 5 12 2 12 -3 0 -7 -4 -11 -9z"/>
<path d="M5930 2789 c0 -5 5 -7 10 -4 6 3 10 8 10 11 0 2 -4 4 -10 4 -5 0 -10
-5 -10 -11z"/>
<path d="M5848 2778 c-7 -17 15 -19 29 -3 4 4 3 5 -4 2 -6 -4 -13 -2 -15 5 -3
8 -6 6 -10 -4z"/>
<path d="M5723 2745 c-3 -9 -3 -18 -1 -21 3 -3 8 4 11 16 6 23 -1 27 -10 5z"/>
<path d="M5895 2750 c3 -5 8 -10 11 -10 2 0 4 5 4 10 0 6 -5 10 -11 10 -5 0
-7 -4 -4 -10z"/>
<path d="M5660 2730 c8 -5 20 -10 25 -10 6 0 3 5 -5 10 -8 5 -19 10 -25 10 -5
0 -3 -5 5 -10z"/>
<path d="M5776 2723 c-6 -14 -5 -15 5 -6 7 7 10 15 7 18 -3 3 -9 -2 -12 -12z"/>
<path d="M5815 2721 c-3 -5 -2 -12 3 -15 5 -3 9 1 9 9 0 17 -3 19 -12 6z"/>
<path d="M5638 2695 c-6 -13 -15 -22 -21 -18 -6 4 -7 1 -2 -7 6 -10 10 -10 19
2 6 8 14 15 18 14 3 -1 10 3 15 8 5 6 2 6 -6 1 -11 -6 -13 -4 -8 8 10 26 -2
20 -15 -8z"/>
<path d="M5733 2695 c0 -7 6 -11 14 -8 7 3 13 6 13 8 0 2 -6 5 -13 8 -8 3 -14
-1 -14 -8z"/>
<path d="M5673 2658 c-2 -18 0 -20 7 -8 12 18 13 30 2 30 -4 0 -9 -10 -9 -22z"/>
<path d="M5596 2657 c3 -10 9 -15 12 -12 3 3 0 11 -7 18 -10 9 -11 8 -5 -6z"/>
<path d="M5507 2654 c-4 -4 -7 -12 -7 -18 0 -6 5 -4 10 4 9 13 11 13 21 0 9
-12 10 -12 7 -1 -5 17 -21 25 -31 15z"/>
<path d="M5555 2639 c-4 -6 -5 -12 -2 -15 2 -3 7 2 10 11 7 17 1 20 -8 4z"/>
<path d="M5636 2631 c-3 -5 2 -15 12 -22 15 -12 16 -12 5 2 -7 9 -10 19 -6 22
3 4 4 7 0 7 -3 0 -8 -4 -11 -9z"/>
<path d="M5690 2636 c0 -2 7 -7 16 -10 8 -3 12 -2 9 4 -6 10 -25 14 -25 6z"/>
<path d="M5581 2607 c-13 -21 -12 -21 5 -5 10 10 16 20 13 22 -3 3 -11 -5 -18
-17z"/>
<path d="M5434 2605 c1 -8 6 -18 11 -22 4 -5 5 -2 0 6 -6 11 -4 13 8 8 23 -9
21 0 -2 13 -15 7 -19 7 -17 -5z"/>
<path d="M5524 2609 c-4 -7 -3 -9 4 -5 5 3 13 0 15 -6 4 -9 6 -10 6 -1 1 17
-16 25 -25 12z"/>
<path d="M5472 2572 c-8 -24 -7 -28 9 -28 12 0 15 4 8 12 -5 6 -7 19 -3 28 3
9 4 16 1 16 -3 0 -9 -13 -15 -28z"/>
<path d="M5605 2590 c-3 -6 1 -7 9 -4 18 7 21 14 7 14 -6 0 -13 -4 -16 -10z"/>
<path d="M5384 2565 c-18 -14 -18 -14 4 -8 12 3 22 9 22 14 0 12 -3 11 -26 -6z"/>
<path d="M5519 2578 c-5 -18 -6 -38 -1 -34 7 8 12 36 6 36 -2 0 -4 -1 -5 -2z"/>
<path d="M5428 2553 c6 -2 9 -10 6 -15 -4 -7 -2 -8 5 -4 13 9 5 26 -12 25 -9
0 -8 -2 1 -6z"/>
<path d="M5336 2533 c-6 -14 -5 -15 5 -6 7 7 10 15 7 18 -3 3 -9 -2 -12 -12z"/>
<path d="M5356 2525 c-9 -26 -7 -32 5 -12 6 10 9 21 6 23 -2 3 -7 -2 -11 -11z"/>
<path d="M5410 2531 c0 -6 4 -13 10 -16 6 -3 7 1 4 9 -7 18 -14 21 -14 7z"/>
<path d="M5306 2513 c-6 -14 -5 -15 5 -6 7 7 10 15 7 18 -3 3 -9 -2 -12 -12z"/>
<path d="M5250 2504 c0 -7 52 -25 57 -20 2 2 -10 8 -26 14 -17 6 -31 9 -31 6z"/>
<path d="M5374 2489 c0 -13 4 -15 13 -8 7 6 17 8 22 5 5 -4 13 -1 17 6 4 7 4
10 0 6 -5 -4 -18 -3 -30 2 -17 6 -22 4 -22 -11z"/>
<path d="M5236 2455 c23 -17 34 -19 34 -4 0 5 -4 8 -9 4 -5 -3 -12 -1 -16 5
-3 5 -11 10 -18 10 -6 0 -2 -7 9 -15z"/>
<path d="M5187 2436 c-4 -10 -1 -13 8 -9 8 3 12 9 9 14 -7 12 -11 11 -17 -5z"/>
<path d="M5125 2413 c-5 -10 -9 -20 -9 -23 -1 -3 -5 -11 -10 -18 -4 -7 -5 -16
-2 -19 3 -4 6 -1 6 6 0 7 4 10 9 7 5 -4 8 2 6 11 -1 10 2 24 8 31 5 7 8 15 5
18 -3 3 -9 -3 -13 -13z"/>
<path d="M5220 2410 c8 -5 20 -10 25 -10 6 0 3 5 -5 10 -8 5 -19 10 -25 10 -5
0 -3 -5 5 -10z"/>
<path d="M5165 2389 c-8 -12 0 -22 20 -25 8 -1 13 2 9 7 -3 5 -10 6 -16 3 -7
-5 -9 -1 -5 9 7 19 2 23 -8 6z"/>
<path d="M5026 2374 c-20 -19 -20 -25 -2 -18 8 3 17 12 20 20 7 18 1 18 -18
-2z"/>
<path d="M5145 2330 c10 -11 20 -20 23 -20 3 0 -3 9 -13 20 -10 11 -20 20 -23
20 -3 0 3 -9 13 -20z"/>
<path d="M5000 2326 c0 -8 4 -17 9 -20 5 -4 7 3 4 14 -6 23 -13 26 -13 6z"/>
<path d="M5046 2332 c-3 -5 1 -9 9 -9 8 0 15 4 15 9 0 4 -4 8 -9 8 -6 0 -12
-4 -15 -8z"/>
<path d="M4881 2296 c2 -2 15 -9 29 -15 24 -11 24 -11 6 3 -16 13 -49 24 -35
12z"/>
<path d="M5053 2275 c0 -8 4 -12 9 -9 5 3 6 10 3 15 -9 13 -12 11 -12 -6z"/>
<path d="M4865 2249 c-4 -6 -4 -13 -1 -16 3 -4 6 -1 6 6 0 8 6 11 16 7 8 -3
12 -2 9 4 -8 13 -22 13 -30 -1z"/>
<path d="M4950 2249 c0 -5 6 -8 13 -6 6 1 11 -5 9 -13 -2 -8 0 -11 4 -7 15 15
11 33 -7 34 -11 1 -19 -2 -19 -8z"/>
<path d="M4804 2225 c-4 -8 -10 -13 -14 -10 -4 3 -10 -2 -13 -10 -4 -10 -1
-12 10 -8 12 5 14 3 8 -8 -5 -8 -5 -11 1 -6 5 5 10 13 10 18 1 5 2 14 3 20 0
5 6 7 13 3 7 -4 8 -3 4 4 -10 16 -15 15 -22 -3z"/>
<path d="M4891 2214 c0 -11 3 -14 6 -6 3 7 2 16 -1 19 -3 4 -6 -2 -5 -13z"/>
<path d="M4715 2190 c-3 -5 -1 -10 4 -10 6 0 11 5 11 10 0 6 -2 10 -4 10 -3 0
-8 -4 -11 -10z"/>
<path d="M4848 2183 c-24 -6 -23 -19 0 -19 10 0 19 6 19 13 0 7 -1 12 -1 12
-1 -1 -9 -3 -18 -6z"/>
<path d="M4896 2177 c3 -10 9 -15 12 -12 3 3 0 11 -7 18 -10 9 -11 8 -5 -6z"/>
<path d="M4757 2166 c-3 -8 0 -17 7 -19 10 -4 12 1 9 14 -6 23 -9 24 -16 5z"/>
<path d="M4655 2151 c-3 -6 3 -14 13 -20 14 -7 19 -6 19 4 0 7 -7 11 -15 7
-10 -3 -13 -1 -8 6 4 7 5 12 2 12 -3 0 -7 -4 -11 -9z"/>
<path d="M4800 2150 c-9 -6 -10 -10 -3 -10 6 0 15 5 18 10 8 12 4 12 -15 0z"/>
<path d="M4630 2130 c0 -5 5 -10 11 -10 5 0 7 5 4 10 -3 6 -8 10 -11 10 -2 0
-4 -4 -4 -10z"/>
<path d="M4719 2138 c-6 -22 -5 -39 3 -45 6 -3 8 -1 4 5 -3 5 0 13 6 15 10 4
10 6 0 6 -7 1 -10 6 -7 11 3 6 4 10 1 10 -3 0 -6 -1 -7 -2z"/>
<path d="M4546 2094 c-6 -15 -4 -15 11 -3 10 7 20 15 22 16 2 2 -3 3 -11 3 -9
0 -19 -7 -22 -16z"/>
<path d="M4590 2106 c0 -2 7 -9 15 -16 9 -7 15 -8 15 -2 0 5 -7 12 -15 16 -8
3 -15 4 -15 2z"/>
<path d="M4657 2086 c-4 -10 -1 -13 8 -9 8 3 12 9 9 14 -7 12 -11 11 -17 -5z"/>
<path d="M4750 2091 c0 -6 4 -13 10 -16 6 -3 7 1 4 9 -7 18 -14 21 -14 7z"/>
<path d="M4680 2070 c-9 -6 -10 -10 -3 -10 6 0 15 5 18 10 8 12 4 12 -15 0z"/>
<path d="M4505 2050 c-3 -6 1 -7 9 -4 18 7 21 14 7 14 -6 0 -13 -4 -16 -10z"/>
<path d="M4553 2047 c-3 -6 -1 -7 5 -3 5 3 13 0 15 -6 4 -10 6 -9 6 1 1 11 6
10 24 -5 22 -19 22 -19 4 2 -18 22 -44 27 -54 11z"/>
<path d="M4633 2045 c0 -8 4 -12 9 -9 4 3 8 9 8 15 0 5 -4 9 -8 9 -5 0 -9 -7
-9 -15z"/>
<path d="M4535 2031 c6 -11 4 -13 -10 -7 -18 7 -18 6 0 -14 10 -11 19 -20 20
-20 6 0 -3 41 -10 47 -4 5 -4 2 0 -6z"/>
<path d="M4478 2023 c7 -3 16 -2 19 1 4 3 -2 6 -13 5 -11 0 -14 -3 -6 -6z"/>
<path d="M4441 2006 c-9 -10 -8 -15 3 -19 11 -4 13 -1 9 10 -5 12 -3 14 7 8 9
-5 11 -4 6 3 -9 15 -11 15 -25 -2z"/>
<path d="M4574 2004 c1 -8 4 -15 7 -16 2 -2 3 -1 2 1 -2 2 2 9 7 16 7 8 5 12
-4 12 -8 0 -13 -6 -12 -13z"/>
<path d="M4506 1987 c3 -10 9 -15 12 -12 3 3 0 11 -7 18 -10 9 -11 8 -5 -6z"/>
<path d="M4405 1970 c-3 -6 1 -7 9 -4 18 7 21 14 7 14 -6 0 -13 -4 -16 -10z"/>
<path d="M4470 1971 c0 -6 4 -13 10 -16 6 -3 7 1 4 9 -7 18 -14 21 -14 7z"/>
<path d="M4315 1951 c3 -5 1 -12 -5 -16 -5 -3 -10 -11 -10 -18 0 -6 7 -2 15 9
17 23 19 34 4 34 -5 0 -8 -4 -4 -9z"/>
<path d="M4413 1946 c-3 -5 -1 -6 5 -2 6 3 12 -1 14 -9 2 -13 5 -13 14 3 10
15 8 18 -8 18 -11 0 -22 -5 -25 -10z"/>
<path d="M4276 1917 c3 -10 9 -15 12 -12 3 3 0 11 -7 18 -10 9 -11 8 -5 -6z"/>
<path d="M4336 1921 c-4 -5 3 -7 14 -4 23 6 26 13 6 13 -8 0 -17 -4 -20 -9z"/>
<path d="M4237 1901 c3 -11 11 -22 19 -25 11 -4 11 0 -2 19 -20 30 -24 31 -17
6z"/>
<path d="M4399 1918 c-6 -20 -6 -39 0 -42 4 -3 7 6 7 20 0 20 -4 32 -7 22z"/>
<path d="M4296 1884 c-3 -9 1 -11 11 -7 10 4 14 2 10 -4 -3 -5 0 -10 8 -10 10
0 12 4 5 12 -5 7 -8 14 -5 17 3 2 -2 5 -10 5 -8 0 -16 -6 -19 -13z"/>
<path d="M4359 1883 c-13 -16 -12 -17 4 -4 9 7 17 15 17 17 0 8 -8 3 -21 -13z"/>
<path d="M4150 1846 c7 -7 13 -7 20 0 6 6 3 10 -10 10 -13 0 -16 -4 -10 -10z"/>
<path d="M4210 1852 c0 -5 7 -9 15 -9 8 0 12 4 9 9 -3 4 -9 8 -15 8 -5 0 -9
-4 -9 -8z"/>
<path d="M4283 1849 c9 -6 14 -15 11 -21 -4 -7 -2 -8 5 -4 14 9 -3 36 -23 36
-6 0 -3 -5 7 -11z"/>
<path d="M4135 1831 c6 -11 4 -13 -8 -8 -22 8 -21 5 3 -16 19 -16 20 -16 17 3
-2 11 -7 23 -12 27 -4 5 -4 2 0 -6z"/>
<path d="M4195 1831 c6 -11 4 -13 -8 -8 -10 4 -14 2 -11 -7 6 -17 32 -16 30 0
-1 8 -6 17 -11 21 -4 5 -5 2 0 -6z"/>
<path d="M4075 1820 c3 -5 8 -10 11 -10 2 0 4 5 4 10 0 6 -5 10 -11 10 -5 0
-7 -4 -4 -10z"/>
<path d="M4070 1780 c-6 -11 -8 -20 -6 -20 3 0 10 9 16 20 6 11 8 20 6 20 -3
0 -10 -9 -16 -20z"/>
<path d="M4011 1777 c2 -1 13 -9 24 -17 19 -14 19 -14 6 3 -7 9 -18 17 -24 17
-6 0 -8 -1 -6 -3z"/>
<path d="M3957 1757 c-3 -8 1 -14 8 -14 7 0 11 6 8 14 -3 7 -6 13 -8 13 -2 0
-5 -6 -8 -13z"/>
<path d="M4014 1752 c3 -6 -2 -12 -11 -14 -16 -3 -17 -4 -1 -10 19 -8 33 17
16 28 -6 4 -8 3 -4 -4z"/>
<path d="M4090 1728 c0 -4 4 -8 9 -8 6 0 12 4 15 8 3 5 -1 9 -9 9 -8 0 -15 -4
-15 -9z"/>
<path d="M3980 1716 c0 -2 7 -7 16 -10 8 -3 12 -2 9 4 -6 10 -25 14 -25 6z"/>
<path d="M4033 1705 c0 -8 4 -12 9 -9 4 3 8 9 8 15 0 5 -4 9 -8 9 -5 0 -9 -7
-9 -15z"/>
<path d="M3866 1694 c-9 -24 -2 -26 12 -4 7 11 8 20 3 20 -5 0 -12 -7 -15 -16z"/>
<path d="M3917 1697 c-3 -8 1 -14 8 -14 7 0 11 6 8 14 -3 7 -6 13 -8 13 -2 0
-5 -6 -8 -13z"/>
<path d="M3953 1658 c-2 -18 0 -20 7 -8 12 18 13 30 2 30 -4 0 -9 -10 -9 -22z"/>
<path d="M3826 1655 c-11 -8 -15 -15 -9 -15 6 0 16 7 23 15 16 19 11 19 -14 0z"/>
<path d="M3881 1646 c-9 -11 -9 -16 0 -22 8 -5 9 -3 4 6 -6 10 -4 12 8 7 11
-4 14 -2 10 9 -6 17 -8 17 -22 0z"/>
<path d="M3787 1619 c4 -13 8 -18 11 -10 2 7 -1 18 -6 23 -8 8 -9 4 -5 -13z"/>
<path d="M3836 1611 c-3 -4 6 -7 19 -7 14 0 22 2 19 5 -8 8 -34 10 -38 2z"/>
<path d="M3690 1586 c0 -3 9 -10 20 -16 11 -6 20 -8 20 -6 0 3 -9 10 -20 16
-11 6 -20 8 -20 6z"/>
<path d="M3635 1570 c-4 -6 1 -7 11 -3 12 4 15 3 10 -5 -5 -8 -1 -10 10 -5 13
5 15 3 9 -7 -6 -9 -4 -11 5 -5 10 6 9 11 -5 22 -22 16 -32 16 -40 3z"/>
<path d="M3814 1566 c1 -8 5 -18 8 -22 4 -3 5 1 4 10 -1 8 -5 18 -8 22 -4 3
-5 -1 -4 -10z"/>
<path d="M3570 1535 c0 -7 30 -13 34 -7 3 4 -4 9 -15 9 -10 1 -19 0 -19 -2z"/>
<path d="M3690 1530 c0 -4 10 -7 23 -6 15 1 21 -4 19 -14 -2 -8 0 -11 4 -7 18
17 10 32 -17 33 -16 1 -29 -2 -29 -6z"/>
<path d="M3563 1505 c-3 -9 -3 -18 -1 -21 3 -3 8 4 11 16 6 23 -1 27 -10 5z"/>
<path d="M3610 1496 c0 -2 7 -7 16 -10 8 -3 12 -2 9 4 -6 10 -25 14 -25 6z"/>
<path d="M3515 1471 c3 -5 1 -12 -5 -16 -5 -3 -10 -11 -10 -18 0 -6 7 -2 15 9
17 23 19 34 4 34 -5 0 -8 -4 -4 -9z"/>
<path d="M3600 1470 c-9 -6 -10 -10 -3 -10 6 0 15 5 18 10 8 12 4 12 -15 0z"/>
<path d="M3470 1455 c0 -5 5 -17 10 -25 5 -8 10 -10 10 -5 0 6 -5 17 -10 25
-5 8 -10 11 -10 5z"/>
<path d="M3390 1415 c-7 -9 -11 -17 -9 -20 3 -2 10 5 17 15 14 24 10 26 -8 5z"/>
<path d="M3433 1423 c-7 -2 -13 -10 -13 -15 0 -6 3 -8 7 -5 3 4 12 -1 20 -11
13 -15 13 -15 4 4 -6 12 -7 24 -4 28 7 7 4 7 -14 -1z"/>
<path d="M3573 1415 c0 -8 4 -12 9 -9 5 3 6 10 3 15 -9 13 -12 11 -12 -6z"/>
<path d="M3506 1408 c3 -5 10 -6 15 -3 13 9 11 12 -6 12 -8 0 -12 -4 -9 -9z"/>
<path d="M3326 1367 c3 -10 9 -15 12 -12 3 3 0 11 -7 18 -10 9 -11 8 -5 -6z"/>
<path d="M3388 1362 c4 -11 1 -13 -9 -7 -8 4 -11 4 -6 0 4 -5 16 -9 27 -10 14
-1 17 2 10 10 -5 7 -8 14 -5 17 3 2 -1 5 -9 5 -8 0 -12 -6 -8 -15z"/>
<path d="M3251 1343 c-1 -17 16 -25 25 -12 4 7 3 9 -4 5 -5 -3 -13 0 -15 6 -4
9 -6 10 -6 1z"/>
<path d="M3333 1325 c0 -8 4 -12 9 -9 5 3 6 10 3 15 -9 13 -12 11 -12 -6z"/>
<path d="M3236 1303 c-6 -14 -5 -15 5 -6 7 7 10 15 7 18 -3 3 -9 -2 -12 -12z"/>
<path d="M3264 1298 c3 -15 26 -23 26 -8 0 6 -4 9 -9 6 -5 -4 -12 -1 -14 4 -3
6 -4 5 -3 -2z"/>
<path d="M3160 1286 c0 -8 4 -17 9 -20 5 -4 7 3 4 14 -6 23 -13 26 -13 6z"/>
<path d="M3353 1285 c0 -8 4 -12 9 -9 5 3 6 10 3 15 -9 13 -12 11 -12 -6z"/>
<path d="M3095 1250 c-3 -5 -1 -10 4 -10 6 0 11 5 11 10 0 6 -2 10 -4 10 -3 0
-8 -4 -11 -10z"/>
<path d="M3140 1250 c8 -5 20 -10 25 -10 6 0 3 5 -5 10 -8 5 -19 10 -25 10 -5
0 -3 -5 5 -10z"/>
<path d="M3230 1250 c0 -5 5 -10 11 -10 5 0 7 5 4 10 -3 6 -8 10 -11 10 -2 0
-4 -4 -4 -10z"/>
<path d="M3115 1230 c-3 -5 -3 -10 1 -10 4 0 -1 -7 -12 -16 -18 -14 -18 -15 4
-4 12 6 20 15 17 20 -3 4 1 11 7 13 9 4 10 6 1 6 -6 1 -15 -3 -18 -9z"/>
<path d="M3187 1222 c4 -9 2 -13 -4 -9 -5 3 -10 -1 -10 -10 0 -13 4 -12 17 5
10 12 19 20 21 19 2 -1 3 0 1 2 -1 3 -9 6 -17 7 -9 1 -11 -4 -8 -14z"/>
<path d="M3040 1221 c0 -6 4 -13 10 -16 6 -3 7 1 4 9 -7 18 -14 21 -14 7z"/>
<path d="M3236 1217 c3 -10 9 -15 12 -12 3 3 0 11 -7 18 -10 9 -11 8 -5 -6z"/>
<path d="M3120 1190 c-9 -6 -10 -10 -3 -10 6 0 15 5 18 10 8 12 4 12 -15 0z"/>
<path d="M2981 1166 c-9 -11 -9 -16 0 -22 8 -5 9 -3 4 6 -6 10 -4 12 8 7 11
-4 14 -2 10 9 -6 17 -8 17 -22 0z"/>
<path d="M3067 1158 c-5 -21 -5 -21 7 -6 10 14 15 15 26 5 12 -10 12 -9 1 6
-18 23 -28 22 -34 -5z"/>
<path d="M3170 1170 c0 -5 5 -10 11 -10 5 0 7 5 4 10 -3 6 -8 10 -11 10 -2 0
-4 -4 -4 -10z"/>
<path d="M2950 1153 c0 -6 8 -17 18 -24 16 -13 16 -13 2 6 -8 11 -16 22 -17
24 -2 2 -3 0 -3 -6z"/>
<path d="M3034 1139 c-3 -6 -2 -15 3 -20 5 -5 9 -1 9 11 0 23 -2 24 -12 9z"/>
<path d="M2866 1115 c-4 -11 -4 -16 0 -12 4 4 12 -1 19 -10 9 -13 14 -13 20
-3 6 9 4 11 -5 5 -10 -6 -12 -4 -7 9 4 9 3 15 -2 11 -5 -3 -11 0 -13 7 -3 7
-7 4 -12 -7z"/>
<path d="M2992 1111 c2 -19 -4 -24 -12 -11 -6 9 -10 10 -10 3 0 -21 17 -23 34
-4 13 14 14 18 2 18 -8 0 -15 -3 -14 -6z"/>
<path d="M2937 1086 c-4 -11 -1 -13 10 -9 12 5 14 3 8 -7 -5 -9 -4 -11 4 -6 9
6 9 11 0 22 -14 17 -16 17 -22 0z"/>
<path d="M2749 1053 c-13 -16 -12 -17 4 -4 16 13 21 21 13 21 -2 0 -10 -8 -17
-17z"/>
<path d="M2900 1050 c-8 -5 -10 -10 -5 -10 6 0 17 5 25 10 8 5 11 10 5 10 -5
0 -17 -5 -25 -10z"/>
<path d="M2790 1046 c0 -2 9 -6 20 -9 11 -3 18 -1 14 4 -5 9 -34 13 -34 5z"/>
<path d="M2690 1010 c0 -5 5 -10 10 -10 6 0 10 5 10 10 0 6 -4 10 -10 10 -5 0
-10 -4 -10 -10z"/>
<path d="M2760 1011 c0 -5 7 -12 16 -15 14 -5 15 -4 4 9 -14 17 -20 19 -20 6z"/>
<path d="M2860 1015 c0 -2 6 -8 13 -14 10 -8 14 -7 14 2 0 8 -6 14 -14 14 -7
0 -13 -1 -13 -2z"/>
<path d="M2654 988 c-5 -7 -2 -8 6 -3 10 6 12 4 6 -10 -5 -15 -4 -16 9 -5 19
15 19 16 0 23 -8 4 -17 1 -21 -5z"/>
<path d="M2730 970 c0 -5 5 -10 10 -10 6 0 10 5 10 10 0 6 -4 10 -10 10 -5 0
-10 -4 -10 -10z"/>
<path d="M2770 949 c0 -5 5 -7 10 -4 6 3 10 8 10 11 0 2 -4 4 -10 4 -5 0 -10
-5 -10 -11z"/>
<path d="M2570 943 c0 -1 8 -7 18 -12 13 -7 19 -6 19 2 0 7 -9 13 -19 13 -10
0 -18 -1 -18 -3z"/>
<path d="M2660 941 c0 -6 4 -13 10 -16 6 -3 7 1 4 9 -7 18 -14 21 -14 7z"/>
<path d="M2553 915 c0 -8 4 -15 9 -15 4 0 8 4 8 9 0 6 -4 12 -8 15 -5 3 -9 -1
-9 -9z"/>
<path d="M2516 896 c10 -8 21 -12 24 -10 5 6 -21 24 -34 24 -6 0 -1 -6 10 -14z"/>
<path d="M2577 886 c-4 -10 -1 -13 8 -9 8 3 12 9 9 14 -7 12 -11 11 -17 -5z"/>
<path d="M2470 879 c0 -6 -5 -7 -12 -3 -6 4 -8 3 -5 -4 4 -5 16 -8 27 -5 24 6
25 9 5 17 -8 3 -15 1 -15 -5z"/>
<path d="M2410 848 c0 -11 12 -10 30 2 12 7 10 9 -8 7 -12 0 -22 -5 -22 -9z"/>
<path d="M2546 852 c-3 -5 1 -9 9 -9 8 0 15 4 15 9 0 4 -4 8 -9 8 -6 0 -12 -4
-15 -8z"/>
<path d="M2375 829 c-4 -6 -5 -12 -2 -15 2 -3 7 2 10 11 7 17 1 20 -8 4z"/>
<path d="M2443 825 c-3 -9 -3 -18 -1 -21 3 -3 8 4 11 16 6 23 -1 27 -10 5z"/>
<path d="M2335 819 c-4 -6 -5 -12 -2 -15 2 -3 7 2 10 11 7 17 1 20 -8 4z"/>
<path d="M2476 803 c-6 -14 -5 -15 5 -6 7 7 10 15 7 18 -3 3 -9 -2 -12 -12z"/>
<path d="M2346 793 c-6 -14 -5 -15 5 -6 7 7 10 15 7 18 -3 3 -9 -2 -12 -12z"/>
<path d="M2290 772 c0 -4 11 -8 25 -8 28 0 24 8 -5 13 -11 2 -20 -1 -20 -5z"/>
<path d="M2254 748 c-5 -7 -2 -8 6 -3 10 6 12 4 6 -10 -5 -15 -4 -16 9 -5 19
15 19 16 0 23 -8 4 -17 1 -21 -5z"/>
<path d="M2450 756 c0 -2 7 -7 16 -10 8 -3 12 -2 9 4 -6 10 -25 14 -25 6z"/>
<path d="M2197 721 c-10 -14 -10 -14 4 -4 9 7 18 10 21 7 3 -3 8 -1 12 4 9 16
-24 9 -37 -7z"/>
<path d="M2310 726 c0 -2 9 -6 20 -9 11 -3 18 -1 14 4 -5 9 -34 13 -34 5z"/>
<path d="M2235 710 c-3 -5 -3 -10 1 -10 4 0 -1 -7 -12 -16 -18 -15 -18 -15 0
-6 11 5 21 17 22 26 3 18 -2 21 -11 6z"/>
<path d="M2171 694 c0 -11 3 -14 6 -6 3 7 2 16 -1 19 -3 4 -6 -2 -5 -13z"/>
<path d="M2257 691 c-4 -17 -3 -21 5 -13 5 5 8 16 6 23 -3 8 -7 3 -11 -10z"/>
<path d="M2140 685 c-11 -13 -10 -14 4 -9 9 3 16 10 16 15 0 13 -6 11 -20 -6z"/>
<path d="M2192 670 c3 -8 1 -23 -4 -32 -6 -13 -5 -16 6 -12 14 5 14 40 0 53
-4 3 -4 -1 -2 -9z"/>
<path d="M2280 670 c-8 -5 -10 -10 -5 -10 6 0 17 5 25 10 8 5 11 10 5 10 -5 0
-17 -5 -25 -10z"/>
<path d="M2120 646 c0 -8 4 -17 9 -20 5 -4 7 3 4 14 -6 23 -13 26 -13 6z"/>
<path d="M2035 620 c-3 -6 1 -7 9 -4 18 7 21 14 7 14 -6 0 -13 -4 -16 -10z"/>
<path d="M2149 613 c-13 -16 -12 -17 4 -4 16 13 21 21 13 21 -2 0 -10 -8 -17
-17z"/>
<path d="M2086 612 c-3 -5 1 -9 9 -9 8 0 15 4 15 9 0 4 -4 8 -9 8 -6 0 -12 -4
-15 -8z"/>
<path d="M1955 570 c-3 -5 -1 -10 4 -10 6 0 11 5 11 10 0 6 -2 10 -4 10 -3 0
-8 -4 -11 -10z"/>
<path d="M2070 566 c0 -2 8 -10 18 -17 15 -13 16 -12 3 4 -13 16 -21 21 -21
13z"/>
<path d="M1976 536 c5 -13 29 -16 36 -5 2 2 1 3 -1 2 -2 -1 -12 2 -22 8 -14 7
-17 6 -13 -5z"/>
<path d="M1880 530 c-9 -6 -10 -10 -3 -10 6 0 15 5 18 10 8 12 4 12 -15 0z"/>
<path d="M1918 533 c7 -3 16 -2 19 1 4 3 -2 6 -13 5 -11 0 -14 -3 -6 -6z"/>
<path d="M1825 510 c-3 -6 1 -7 9 -4 18 7 21 14 7 14 -6 0 -13 -4 -16 -10z"/>
<path d="M1967 509 c7 -7 15 -10 18 -7 3 3 -2 9 -12 12 -14 6 -15 5 -6 -5z"/>
<path d="M1852 503 c-7 -2 -17 -13 -22 -24 -9 -15 -8 -17 5 -13 9 4 13 9 11
12 -3 3 2 11 12 18 18 14 16 16 -6 7z"/>
<path d="M1904 482 c0 -10 6 -19 13 -19 8 0 9 6 2 19 -5 10 -11 18 -12 18 -2
0 -3 -8 -3 -18z"/>
<path d="M1950 491 c0 -6 4 -13 10 -16 6 -3 7 1 4 9 -7 18 -14 21 -14 7z"/>
<path d="M1758 463 c7 -3 16 -2 19 1 4 3 -2 6 -13 5 -11 0 -14 -3 -6 -6z"/>
<path d="M1877 463 c-10 -9 -9 -23 1 -23 5 0 9 7 9 15 0 17 -1 18 -10 8z"/>
<path d="M1720 445 c-7 -9 -11 -17 -9 -20 3 -2 10 5 17 15 14 24 10 26 -8 5z"/>
<path d="M1790 456 c0 -2 7 -7 16 -10 8 -3 12 -2 9 4 -6 10 -25 14 -25 6z"/>
<path d="M1774 428 c-4 -7 -3 -8 4 -4 7 4 12 1 12 -8 0 -8 4 -17 8 -20 4 -2 8
4 8 14 0 22 -22 34 -32 18z"/>
<path d="M1737 419 c7 -7 15 -10 18 -7 3 3 -2 9 -12 12 -14 6 -15 5 -6 -5z"/>
<path d="M1620 409 c0 -4 6 -9 13 -12 8 -3 14 0 14 7 0 7 -6 13 -14 13 -7 0
-13 -4 -13 -8z"/>
<path d="M1672 401 c-11 -6 -10 -10 4 -15 9 -3 19 -4 22 -1 3 3 0 5 -7 5 -7 0
-9 5 -6 10 7 12 4 12 -13 1z"/>
<path d="M1760 390 c8 -5 20 -10 25 -10 6 0 3 5 -5 10 -8 5 -19 10 -25 10 -5
0 -3 -5 5 -10z"/>
<path d="M1475 379 c-4 -6 -5 -12 -2 -15 2 -3 7 2 10 11 7 17 1 20 -8 4z"/>
<path d="M1508 383 c7 -3 16 -2 19 1 4 3 -2 6 -13 5 -11 0 -14 -3 -6 -6z"/>
<path d="M1582 370 c0 -14 2 -19 5 -12 2 6 2 18 0 25 -3 6 -5 1 -5 -13z"/>
<path d="M1714 376 c1 -8 5 -18 8 -22 4 -3 5 1 4 10 -1 8 -5 18 -8 22 -4 3 -5
-1 -4 -10z"/>
<path d="M1551 357 c-13 -21 -12 -21 5 -5 10 10 16 20 13 22 -3 3 -11 -5 -18
-17z"/>
<path d="M1650 371 c0 -6 4 -12 8 -15 5 -3 9 1 9 9 0 8 -4 15 -9 15 -4 0 -8
-4 -8 -9z"/>
</g>
</svg>
