<svg id="Layer_1" enable-background="new 0 0 511.333 511.333" height="512" viewBox="0 0 511.333 511.333" width="512" xmlns="http://www.w3.org/2000/svg" fill="white"><path d="m490.333 106.667c-11.598 0-21 9.402-21 21v256c0 11.598 9.402 21 21 21s21-9.402 21-21v-256c0-11.598-9.402-21-21-21z"/><path d="m21 106.667c-11.598 0-21 9.402-21 21v256c0 11.598 9.402 21 21 21s21-9.402 21-21v-256c0-11.598-9.402-21-21-21z"/><path d="m415.667 74.667h-320c-11.598 0-21 9.402-21 21v320c0 11.598 9.402 21 21 21h320c11.598 0 21-9.402 21-21v-320c0-11.598-9.403-21-21-21zm-66.55 137.058c-5.187 10.374-17.799 14.576-28.175 9.392l-33.608-16.805v94.021c0 35.105-28.561 63.666-63.667 63.666-35.106.001-63.667-28.56-63.667-63.665 0-35.106 28.561-63.667 63.667-63.667h21.667v-64.333c0-15.608 16.454-25.75 30.392-18.783l64 32c10.372 5.186 14.577 17.8 9.391 28.174z"/></svg>